HIERARCHY
ROOT Hips
{
	OFFSET -0.001795 -0.223333 0.028219
	CHANNELS 6 Xposition Yposition Zposition Zrotation Yrotation Xrotation 
	JOINT LeftUpLeg
	{
		OFFSET 0.069520 -0.091406 -0.006815
		CHANNELS 3 Zrotation Yrotation Xrotation
		JOINT LeftLeg
		{
			OFFSET 0.034277 -0.375199 -0.004496
			CHANNELS 3 Zrotation Yrotation Xrotation
			JOINT LeftFoot
			{
				OFFSET -0.013596 -0.397961 -0.043693
				CHANNELS 3 Zrotation Yrotation Xrotation
				JOINT LeftToe
				{
					OFFSET 0.026358 -0.055791 0.119288
					CHANNELS 3 Zrotation Yrotation Xrotation
					End Site
					{
						OFFSET 0.000000 0.000000 0.000000
					}
				}
			}
		}
	}
	JOINT RightUpLeg
	{
		OFFSET -0.067670 -0.090522 -0.004320
		CHANNELS 3 Zrotation Yrotation Xrotation
		JOINT RightLeg
		{
			OFFSET -0.038290 -0.382569 -0.008850
			CHANNELS 3 Zrotation Yrotation Xrotation
			JOINT RightFoot
			{
				OFFSET 0.015774 -0.398415 -0.042312
				CHANNELS 3 Zrotation Yrotation Xrotation
				JOINT RightToe
				{
					OFFSET -0.025372 -0.048144 0.123348
					CHANNELS 3 Zrotation Yrotation Xrotation
					End Site
					{
						OFFSET 0.000000 0.000000 0.000000
					}
				}
			}
		}
	}
	JOINT Spine
	{
		OFFSET -0.002533 0.108963 -0.026696
		CHANNELS 3 Zrotation Yrotation Xrotation
		JOINT Spine1
		{
			OFFSET 0.005487 0.135180 0.001092
			CHANNELS 3 Zrotation Yrotation Xrotation
			JOINT Spine2
			{
				OFFSET 0.001457 0.052922 0.025425
				CHANNELS 3 Zrotation Yrotation Xrotation
				JOINT Neck
				{
					OFFSET -0.002778 0.213870 -0.042857
					CHANNELS 3 Zrotation Yrotation Xrotation
					JOINT Head
					{
						OFFSET 0.005152 0.064970 0.051349
						CHANNELS 3 Zrotation Yrotation Xrotation
						End Site
						{
							OFFSET 0.000000 0.000000 0.000000
						}
					}
				}
				JOINT LeftShoulder
				{
					OFFSET 0.078845 0.121749 -0.034090
					CHANNELS 3 Zrotation Yrotation Xrotation
					JOINT LeftArm
					{
						OFFSET 0.090977 0.030469 -0.008868
						CHANNELS 3 Zrotation Yrotation Xrotation
						JOINT LeftForeArm
						{
							OFFSET 0.259612 -0.012772 -0.027456
							CHANNELS 3 Zrotation Yrotation Xrotation
							JOINT LeftHand
							{
								OFFSET 0.249234 0.008986 -0.001171
								CHANNELS 3 Zrotation Yrotation Xrotation
								End Site
								{
									OFFSET 0.000000 0.000000 0.000000
								}
							}
						}
					}
				}
				JOINT RightShoulder
				{
					OFFSET -0.081759 0.118833 -0.038615
					CHANNELS 3 Zrotation Yrotation Xrotation
					JOINT RightArm
					{
						OFFSET -0.096012 0.032551 -0.009143
						CHANNELS 3 Zrotation Yrotation Xrotation
						JOINT RightForeArm
						{
							OFFSET -0.253742 -0.013329 -0.021401
							CHANNELS 3 Zrotation Yrotation Xrotation
							JOINT RightHand
							{
								OFFSET -0.255298 0.007772 -0.005559
								CHANNELS 3 Zrotation Yrotation Xrotation
								End Site
								{
									OFFSET 0.000000 0.000000 0.000000
								}
							}
						}
					}
				}
			}
		}
	}
}
MOTION
Frames: 14
Frame Time: 0.050000
0.000000 0.755139 0.000000 0.777945 0.174162 -2.960081 19.577135 2.536304 -33.015395 -12.135744 6.703640 63.639827 13.148313 28.545404 -13.953719 0.000000 0.000000 0.000000 -12.493702 -0.125511 -34.100253 14.530439 -9.920399 74.862504 -5.667156 -6.311327 -23.458177 0.000000 0.000000 0.000000 6.182149 -4.568325 45.551946 -5.826279 2.037569 -25.076062 -2.042147 4.945765 20.516151 12.553288 -3.808367 -31.824418 0.000000 0.000000 0.000000 -30.894079 -29.503679 15.632907 -27.362904 -21.454014 0.424044 25.822658 -31.556244 -6.257755 0.000000 0.000000 0.000000 30.326943 23.613079 15.914729 8.030238 48.087685 -1.237246 -41.004232 19.995011 -5.846020 0.000000 0.000000 0.000000 
0.009011 0.777299 0.011252 0.676643 -0.680793 -3.496387 18.137490 2.019240 -29.532191 -11.767617 6.242466 59.162220 14.551427 30.989752 -10.128762 0.000000 0.000000 0.000000 -12.417441 0.012029 -33.043920 15.270834 -9.854856 73.130407 -5.542005 -10.001063 -15.100834 0.000000 0.000000 0.000000 6.173052 -4.122757 43.073517 -7.404159 2.318234 -27.143296 0.543923 4.653735 22.227020 12.379836 -3.520544 -34.435986 0.000000 0.000000 0.000000 -33.760205 -28.063794 15.629654 -26.317433 -18.213903 -0.424382 19.325155 -31.025643 -4.276137 0.000000 0.000000 0.000000 32.504871 21.751366 14.803704 13.021340 46.286123 0.230210 -38.966598 20.081258 -5.476328 0.000000 0.000000 0.000000 
0.018985 0.800644 0.022983 1.064637 0.547538 -4.545770 16.103949 1.090739 -24.015608 -11.354067 4.856926 52.011739 14.550555 30.874831 -10.169347 0.000000 0.000000 0.000000 -12.058528 -0.023882 -26.035132 12.553194 -7.039840 65.823749 -5.294215 -8.044289 -17.358831 0.000000 0.000000 0.000000 6.125281 -3.703334 37.756979 -5.412371 1.985326 -24.546960 -2.209117 3.886737 22.086691 12.337355 -3.693725 -33.499335 0.000000 0.000000 0.000000 -32.185496 -25.219014 13.273925 -29.760249 -19.279669 -0.156577 15.534542 -28.480642 -2.910514 0.000000 0.000000 0.000000 36.273377 20.756058 14.915174 14.970166 42.103992 0.467219 -32.763130 24.785885 -5.759156 0.000000 0.000000 0.000000 
0.029273 0.826531 0.033606 1.458786 -0.308921 -5.511048 14.616297 0.667890 -17.900234 -11.366524 4.499118 44.753609 14.649215 30.773243 -8.738155 0.000000 0.000000 0.000000 -11.145253 0.215115 -22.372583 10.548129 -4.607157 60.842079 -5.201115 -9.738936 -12.125176 0.000000 0.000000 0.000000 5.972784 -3.222002 34.947543 -5.844326 2.110300 -23.650864 -2.119337 4.276360 21.885613 11.861274 -3.203937 -34.460105 0.000000 0.000000 0.000000 -30.350996 -23.207309 11.575615 -33.504801 -17.186569 -0.553064 13.177038 -30.520184 -2.472248 0.000000 0.000000 0.000000 36.341616 17.374372 12.307314 22.415247 39.902632 2.188048 -30.820715 25.926976 -5.474543 0.000000 0.000000 0.000000 
0.039252 0.851446 0.041889 1.498064 -0.409217 -5.494590 12.962652 0.320376 -13.829594 -10.527471 3.606821 38.306913 14.643804 30.194853 -6.195498 0.000000 0.000000 0.000000 -10.404328 0.290038 -16.538484 8.856515 -2.916619 51.869072 -5.453635 -10.352634 -12.728704 0.000000 0.000000 0.000000 6.597482 -3.010005 31.124623 -6.941233 2.406654 -23.140598 -1.367240 3.697661 22.663423 11.606757 -3.337525 -33.567393 0.000000 0.000000 0.000000 -29.984444 -22.082805 11.093828 -35.857348 -17.599218 -0.549258 11.337615 -27.777223 -1.726730 0.000000 0.000000 0.000000 36.351420 15.257179 10.415706 27.282274 36.746742 2.770697 -29.936385 26.947709 -5.420840 0.000000 0.000000 0.000000 
0.047966 0.874494 0.047620 1.644914 -0.732204 -4.194788 11.283495 0.070528 -10.373014 -9.678236 2.784093 30.277316 14.674469 29.835843 -3.763936 0.000000 0.000000 0.000000 -10.319876 0.304791 -13.343723 7.965697 -2.059781 43.974232 -5.358074 -10.642861 -10.736771 0.000000 0.000000 0.000000 6.682485 -2.673927 27.605576 -6.644357 2.297736 -23.295252 -1.769085 4.381243 22.958218 11.051541 -3.179772 -32.164408 0.000000 0.000000 0.000000 -29.411783 -20.512546 9.826211 -38.569033 -16.164260 -0.927063 10.379711 -27.196599 -1.437790 0.000000 0.000000 0.000000 36.435111 13.188930 9.165300 31.815922 33.097243 2.723999 -28.712838 30.413501 -5.750351 0.000000 0.000000 0.000000 
0.055188 0.895699 0.051025 1.566749 -1.312763 -3.154039 9.906158 -0.050096 -8.134524 -8.297749 2.061388 25.064010 14.172798 28.397653 -0.739099 0.000000 0.000000 0.000000 -10.155407 0.329147 -10.630735 7.141019 -1.402265 36.771802 -4.829130 -9.966631 -7.478034 0.000000 0.000000 0.000000 6.886192 -2.395230 24.461271 -6.303633 2.155270 -24.087566 -2.087018 4.824877 23.403516 11.525328 -3.377444 -32.212411 0.000000 0.000000 0.000000 -29.045506 -17.882942 8.062504 -40.565880 -14.188555 -1.591163 8.308147 -27.558358 -0.929690 0.000000 0.000000 0.000000 35.957936 10.169899 6.976604 36.319073 29.720914 2.472472 -26.607154 36.684788 -6.273704 0.000000 0.000000 0.000000 
0.060511 0.911014 0.052392 1.591380 -2.430711 -1.971068 9.089197 -0.092118 -7.096872 -7.624915 1.784113 21.721436 13.720477 27.281473 1.761250 0.000000 0.000000 0.000000 -10.086092 0.373312 -8.953753 6.440817 -0.907727 30.312562 -4.404369 -9.691656 -4.274521 0.000000 0.000000 0.000000 6.801624 -2.135183 22.268891 -6.569742 2.162493 -24.736899 -1.855575 5.606575 23.850332 11.140016 -3.407227 -30.723873 0.000000 0.000000 0.000000 -28.521589 -16.166795 6.928987 -42.069951 -12.756757 -2.144663 7.229345 -27.635197 -0.649421 0.000000 0.000000 0.000000 34.961376 7.292092 4.839634 39.470205 26.270959 1.785092 -24.000571 43.953289 -6.543873 0.000000 0.000000 0.000000 
0.064099 0.921439 0.052826 1.483838 -3.173425 -1.228275 8.650181 -0.103875 -6.147156 -6.569490 1.406949 19.207665 12.755340 25.405492 3.315624 0.000000 0.000000 0.000000 -9.774710 0.411298 -8.027000 5.723391 -0.588797 25.950044 -4.050318 -9.807407 -0.913877 0.000000 0.000000 0.000000 7.176297 -2.006148 20.274412 -6.365855 2.098527 -24.463599 -2.488453 5.793057 23.587508 11.198675 -3.694306 -29.279661 0.000000 0.000000 0.000000 -28.512725 -13.953196 5.584868 -42.617716 -10.417056 -2.945524 6.170188 -27.668012 -0.375915 0.000000 0.000000 0.000000 34.723006 5.184335 3.132344 40.628762 22.504405 0.756767 -21.061635 52.139968 -6.573556 0.000000 0.000000 0.000000 
0.066219 0.928687 0.053300 1.321261 -4.148141 -0.454829 8.555035 -0.085745 -5.055004 -5.654494 1.115230 16.758875 11.584694 23.320586 3.988402 0.000000 0.000000 0.000000 -9.789268 0.440928 -7.185881 5.653696 -0.523686 22.170479 -3.527122 -9.144904 1.016314 0.000000 0.000000 0.000000 7.132300 -1.810900 18.397196 -6.087716 1.999275 -24.480855 -2.410553 6.546777 23.788892 10.889308 -3.732401 -27.955120 0.000000 0.000000 0.000000 -28.495336 -12.052523 4.326001 -43.583040 -8.680993 -3.609625 5.476076 -27.162811 -0.189702 0.000000 0.000000 0.000000 34.998632 2.767041 1.398424 41.260437 19.689584 -0.169106 -19.696828 58.575801 -6.684599 0.000000 0.000000 0.000000 
0.067101 0.934064 0.053830 1.208508 -4.743480 -0.327886 8.500869 -0.054595 -3.577178 -5.063266 0.902842 14.036274 11.131987 22.410312 5.500159 0.000000 0.000000 0.000000 -9.274262 0.436049 -5.525276 4.981652 -0.350674 18.365529 -3.409055 -9.380323 2.575151 0.000000 0.000000 0.000000 7.394552 -1.697700 16.854494 -6.136333 1.998795 -24.510432 -2.547143 6.428253 24.354090 10.419568 -3.622350 -27.564663 0.000000 0.000000 0.000000 -28.204648 -10.005473 3.248454 -44.844563 -6.741069 -4.510952 5.661310 -26.959957 -0.177820 0.000000 0.000000 0.000000 34.774681 0.962173 -0.181903 42.892005 17.399895 -0.815890 -19.834970 62.965097 -7.335742 0.000000 0.000000 0.000000 
0.067288 0.937041 0.054353 0.944568 -5.068524 0.349838 8.928026 -0.035453 -2.891238 -4.833072 0.785711 11.195976 10.857079 21.800099 7.293337 0.000000 0.000000 0.000000 -8.889873 0.439150 -4.652349 4.557972 -0.291867 14.862943 -3.030871 -9.078767 4.204449 0.000000 0.000000 0.000000 7.443455 -1.517655 14.710269 -5.860237 1.928300 -24.009093 -2.599771 6.875892 24.397825 9.982560 -3.435124 -26.902952 0.000000 0.000000 0.000000 -28.011770 -8.418374 2.152878 -45.779416 -5.615880 -4.985104 5.225678 -25.709305 -0.066866 0.000000 0.000000 0.000000 35.728064 -0.602630 -1.339217 43.898440 16.391080 -1.155499 -21.268625 63.907868 -8.208613 0.000000 0.000000 0.000000 
0.067184 0.939145 0.054769 0.943941 -5.599274 0.729608 8.962966 -0.019029 -2.105901 -4.788732 0.745689 9.243682 10.774730 21.596678 8.191331 0.000000 0.000000 0.000000 -8.746197 0.446299 -4.139691 4.287890 -0.257422 12.535880 -2.893353 -9.237998 5.524963 0.000000 0.000000 0.000000 7.491052 -1.425374 13.664857 -6.119858 1.966339 -24.516591 -2.093534 7.112151 24.979840 9.905561 -3.470199 -26.694287 0.000000 0.000000 0.000000 -27.693074 -7.222436 1.504861 -46.816684 -4.684176 -5.525799 5.508968 -25.125023 -0.093464 0.000000 0.000000 0.000000 36.142820 -2.126354 -2.606129 45.217919 15.986991 -1.290471 -23.124053 63.959346 -9.221982 0.000000 0.000000 0.000000 
0.067165 0.940683 0.055191 0.877100 -6.190269 1.000920 9.260691 0.008151 -1.254191 -4.877815 0.727320 7.014376 10.754427 21.432328 9.825091 0.000000 0.000000 0.000000 -8.564262 0.437049 -3.097248 3.955265 -0.234188 9.656523 -2.576290 -8.919165 6.477411 0.000000 0.000000 0.000000 7.359283 -1.262841 12.101664 -5.932059 1.912001 -24.224294 -2.084221 7.372313 25.319723 9.538596 -3.315100 -26.502557 0.000000 0.000000 0.000000 -27.770442 -6.262283 0.961653 -47.492368 -4.162869 -5.846067 5.188692 -24.506654 -0.001813 0.000000 0.000000 0.000000 36.653621 -2.419845 -2.959065 46.121067 15.955225 -1.281296 -24.601636 62.838798 -9.845560 0.000000 0.000000 0.000000 
